<svg version="1.1" id="Layer_1" xmlns="http://www.w3.org/2000/svg" xmlns:xlink="http://www.w3.org/1999/xlink" x="0px" y="0px"
     viewBox="0 0 144 143.8" enable-background="new 0 0 144 143.8" xml:space="preserve">
  <path id="fhirbase" class="logo" d="
                                      M93.5,21.9c0.4,2,4.2,11.1-1.9,17.4c-8.1-28-27.1-35.2-27.1-35.2c0,2.6,3.4,17.8-18.3,43.8c-0.2-5.6-1-10.9-4-15.8
                                      C42,50.8,8,75,53.8,100.8C43.4,79.4,58.7,75,62.6,56.9c2.6,4.5,3.3,9,2.5,13.9c1.4-1.7,9.2-10.7,8-26.6c8.8,6.7,14.3,15.3,17,25.8
                                      c2.7,10.5,2,20.7-2.9,30.6C142.1,69.9,96.5,24.6,93.5,21.9z M103,111.3c-1.5-3.8-3.2-5.2-7.5-5.3c-9.7,0.1-19.5,0-29.2,0
                                      c-2.6,0-5.1,0.5-5.8,3.5c-1.1,4.6-2.2,9.3-3,14c-0.4,2.4,0.3,3.8,3.5,3.8c15.2-0.1,30.4-0.1,45.6,0c2.5-0.3,2.2-1.5,1.6-3.3
                                      C106.6,119.8,104.7,115.7,103,111.3z M102.6,131.5c-10.2,0-33.8,0-42.5,0c-0.9,0-1,1.3-0.8,1.7c2.8,6.6,3.3,6.7,10.7,6.7
                                      c6.6,0,13.2,0,19.7,0c2.3,0,3.2-0.1,5-1.2c2.9-1.8,5.6-3.1,8.4-5.2C104.4,132.6,104.8,131.5,102.6,131.5z M52.3,131.6
                                      c-5.2,0-9.5,0-14.6,0c0,2.8,9.6,7.1,10.8,7.5c2.9,1,5.8,0.8,9.3,0.4C57,136.6,56.3,131.6,52.3,131.6z M49.5,127.6
                                      c1.3-0.1,3,0,3.8-2.7c1.3-4.4,2.6-9.6,3.4-13.6c0.9-5,0.2-5-2.4-5c-1.5,0-3.3,0-5,0c-3.9-0.1-7.8,0-9.1,1.9
                                      c-3.5,5.3-9.7,16.7-4.1,18.6C38.7,127.8,48.6,127.7,49.5,127.6z"/>
  </svg>
